<?xml version="1.0" encoding="UTF-8"?>
<svg xmlns="http://www.w3.org/2000/svg" xmlns:xlink="http://www.w3.org/1999/xlink" width="16px" height="16px" viewBox="0 0 16 16" version="1.1">
<g id="surface1">
<path style=" stroke:none;fill-rule:nonzero;fill:rgb(100%,100%,100%);fill-opacity:1;" d="M 14.425781 10.898438 L 12.167969 10.640625 C 11.902344 10.609375 11.632812 10.636719 11.382812 10.726562 C 11.128906 10.8125 10.898438 10.957031 10.710938 11.148438 L 9.074219 12.78125 C 6.550781 11.5 4.5 9.449219 3.21875 6.925781 L 4.863281 5.28125 C 5.246094 4.898438 5.429688 4.363281 5.367188 3.820312 L 5.109375 1.582031 C 5.0625 1.148438 4.851562 0.75 4.527344 0.457031 C 4.199219 0.167969 3.777344 0.0078125 3.34375 0.0078125 L 1.804688 0.0078125 C 0.800781 0.0078125 -0.0351562 0.84375 0.0273438 1.847656 C 0.496094 9.441406 6.570312 15.503906 14.152344 15.972656 C 15.15625 16.035156 15.992188 15.199219 15.992188 14.195312 L 15.992188 12.65625 C 16 11.761719 15.324219 11.003906 14.425781 10.898438 Z M 14.425781 10.898438 "/>
</g>
</svg>
