<?xml version="1.0" encoding="UTF-8"?>
<svg xmlns="http://www.w3.org/2000/svg" xmlns:xlink="http://www.w3.org/1999/xlink" width="16px" height="17px" viewBox="0 0 16 16" version="1.1">
<g id="surface1">
<path style=" stroke:none;fill-rule:nonzero;fill:#fff;fill-opacity:1;" d="M 8 0.25 C 3.582031 0.25 0 3.71875 0 8 C 0 12.28125 3.582031 15.75 8 15.75 C 12.417969 15.75 16 12.28125 16 8 C 16 3.71875 12.417969 0.25 8 0.25 Z M 11.710938 5.523438 C 11.589844 6.746094 11.066406 9.722656 10.804688 11.09375 C 10.691406 11.675781 10.472656 11.867188 10.257812 11.886719 C 9.792969 11.929688 9.441406 11.589844 8.992188 11.304688 C 8.285156 10.855469 7.886719 10.578125 7.207031 10.140625 C 6.417969 9.636719 6.929688 9.359375 7.378906 8.90625 C 7.496094 8.789062 9.542969 6.984375 9.582031 6.820312 C 9.585938 6.800781 9.589844 6.726562 9.542969 6.683594 C 9.492188 6.644531 9.425781 6.660156 9.378906 6.667969 C 9.304688 6.683594 8.183594 7.402344 6.003906 8.828125 C 5.683594 9.039062 5.394531 9.144531 5.136719 9.136719 C 4.847656 9.132812 4.300781 8.980469 3.890625 8.851562 C 3.390625 8.695312 2.992188 8.613281 3.027344 8.34375 C 3.042969 8.203125 3.242188 8.0625 3.621094 7.914062 C 5.953125 6.933594 7.507812 6.285156 8.285156 5.96875 C 10.507812 5.074219 10.972656 4.917969 11.269531 4.914062 C 11.339844 4.914062 11.484375 4.929688 11.582031 5.003906 C 11.644531 5.058594 11.683594 5.132812 11.695312 5.210938 C 11.710938 5.316406 11.714844 5.417969 11.710938 5.523438 Z M 11.710938 5.523438 "/>
</g>
</svg>
